<svg width="190" height="89" viewBox="0 0 190 89" fill="none" xmlns="http://www.w3.org/2000/svg">
<path d="M5.9297 1.99928C14.3267 6.29776 34.1198 12.9955 46.0156 15.4946C79.2039 22.692 83.9023 24.1915 126.787 42.685C147.58 51.5819 167.273 58.3795 170.272 57.5798C171.372 57.2799 174.77 55.1806 177.769 52.9814C183.867 48.383 187.666 47.0835 188.965 49.0828C190.265 51.0821 190.065 53.981 188.665 54.4808C187.966 54.6808 184.867 55.5805 181.868 56.3802C177.669 57.5798 174.57 59.4791 168.872 64.4773C163.874 68.8758 157.476 73.0743 149.579 77.0729C143.081 80.3717 136.184 84.1704 134.285 85.47C128.986 89.0687 125.788 89.3686 119.89 86.8695C114.991 84.7702 114.292 84.7702 102.696 85.7698C87.501 87.1693 86.2015 86.7695 83.4025 78.7723C81.7031 73.6741 81.6031 72.5745 82.8027 68.276C86.3014 55.9803 85.7017 50.5822 80.7034 48.183C76.9048 46.3837 72.1064 48.6829 68.0079 54.4808C65.4088 58.0796 63.8093 59.2791 59.7108 60.4787C52.2134 62.6779 49.7143 62.378 45.3159 58.8793C40.4176 54.9806 36.5189 53.2813 28.6217 51.6818L22.4239 50.3823L18.4253 43.1848C16.2261 39.1862 11.5277 32.5886 7.92899 28.49C4.33026 24.3914 1.13138 19.993 0.731524 18.7934C-0.36809 14.8948 -0.16816 7.62939e-06 0.931454 7.62939e-06C1.53124 7.62939e-06 3.83043 0.899662 5.9297 1.99928Z" fill="white"/>
</svg>
