<svg width="67" height="35" viewBox="0 0 67 35" fill="none" xmlns="http://www.w3.org/2000/svg">
<path d="M14.4359 4.39849C22.1332 11.1961 25.2321 12.3957 35.0287 12.0958C37.6278 11.9958 40.6267 10.6962 45.425 7.3974C54.4218 1.19958 56.821 0.499852 62.3191 1.99932L66.7175 3.19891L59.2202 13.0954C55.0216 18.4935 48.524 25.691 44.7253 29.0898C38.0276 34.9877 37.7277 35.1876 35.4285 33.6882C34.129 32.7885 31.33 29.9895 29.3307 27.4904C27.0315 24.7913 23.3328 21.8923 19.934 20.1929C10.9371 15.7945 3.23985 11.0961 1.24055 8.89691C-0.658783 6.79765 -0.658751 6.69764 3.23988 3.3988C5.43911 1.49947 7.73824 -3.8147e-06 8.438 -3.8147e-06C9.03779 -3.8147e-06 11.8368 1.99934 14.4359 4.39849Z" fill="white"/>
</svg>
