<svg width="115" height="126" viewBox="0 0 115 126" fill="none" xmlns="http://www.w3.org/2000/svg">
<path d="M88.6688 22.692C90.5682 30.2893 92.8673 37.8867 93.767 39.3862C94.6667 40.8856 99.1652 45.384 103.764 49.2827C113.76 57.6797 115.459 60.9786 114.56 69.4756C113.86 76.6731 109.262 84.1704 100.665 92.1676C84.9701 106.762 81.0715 110.961 78.4724 116.559C74.9736 123.856 71.5748 126.156 65.7769 125.156C60.5787 124.156 57.9796 121.157 57.9796 116.059C57.9796 112.86 57.2798 111.561 53.881 108.262C47.2834 101.964 45.9838 99.465 45.9838 92.6674C45.9838 86.0697 43.6847 79.8719 39.986 76.673C38.7864 75.5734 36.987 73.0743 35.8874 71.075C31.7888 62.9779 21.1926 57.3798 7.19748 55.5804C1.59945 54.9807 0 53.1813 0 47.9832C0 46.0838 0.0999749 45.9838 1.79938 47.4833C5.29815 50.6822 8.79692 51.282 15.4946 49.6826C20.3928 48.5829 23.1919 48.4829 28.0901 49.2827C40.3858 51.282 48.5829 48.383 55.1806 39.786C57.1799 37.087 59.5791 32.7885 60.4788 30.2894C63.9775 20.3928 66.9765 15.3946 74.074 7.79724L81.3714 0L83.2708 4.29846C84.3704 6.69762 86.7695 14.9947 88.6688 22.692Z" fill="white"/>
</svg>
