<svg width="430" height="300" viewBox="0 0 430 300" fill="none" xmlns="http://www.w3.org/2000/svg">
<path d="M265.407 2.67734C266.607 4.1768 267.207 6.67587 267.207 10.2746C267.207 14.473 268.006 17.0721 270.705 22.2702C274.704 29.6676 274.904 31.367 272.605 38.0646C270.705 43.6626 271.105 51.7596 273.704 56.5578C275.004 59.1569 275.104 60.3565 274.104 63.5553C272.705 68.3536 274.104 71.2525 281.502 79.2496C286.3 84.4478 287.2 84.9476 291.898 85.3474C294.797 85.6473 298.196 85.6474 299.495 85.2475C302.194 84.6477 304.194 80.4492 304.194 75.2511C304.194 71.5524 304.793 70.6527 308.492 68.3536C311.291 66.5542 311.291 66.5543 314.89 69.7531C318.289 72.652 318.889 72.852 324.287 72.4521C333.583 71.7524 338.182 66.0544 338.182 55.2583C338.182 50.8599 338.582 49.5604 340.081 48.6607C341.181 48.1609 347.279 47.6611 353.576 47.6611H365.172V55.2583C365.172 62.7556 365.272 62.8556 368.971 66.3543C370.97 68.2536 375.569 72.6521 379.168 76.1508C382.766 79.6495 387.665 83.4482 390.164 84.6477C392.663 85.8473 397.261 88.6463 400.56 90.8455C403.759 93.0447 408.257 95.6437 410.656 96.6434C412.956 97.643 416.454 99.8422 418.354 101.542C420.953 103.741 422.952 104.64 425.551 104.64C427.751 104.64 429.15 105.14 429.15 105.84C429.15 106.54 424.552 116.536 419.054 128.132C409.257 148.325 379.867 216.1 378.568 221.198C378.068 223.198 378.568 224.397 381.067 226.796C384.466 230.195 385.165 234.494 382.566 236.693C379.367 239.292 378.368 242.99 378.868 249.588C379.168 253.387 378.768 258.585 377.968 262.084L376.468 268.081L364.573 268.681C351.677 269.281 300.495 268.281 299.595 267.382C299.096 266.782 295.697 267.582 292.098 268.981C290.998 269.481 289.099 267.582 285.3 262.183C278.703 252.887 274.204 249.688 266.907 248.888C259.809 248.189 256.91 249.188 247.913 255.986C240.316 261.784 238.217 264.683 238.217 269.581C238.217 273.479 236.018 275.379 230.619 276.178C227.021 276.678 224.821 277.878 220.723 281.576L215.525 286.275L210.327 285.275C205.828 284.276 204.628 284.475 199.93 286.475C196.731 287.974 192.433 288.974 188.734 289.074C181.437 289.374 179.237 290.173 172.34 295.372L166.942 299.47L156.845 295.871C147.349 292.473 135.353 287.674 103.264 274.179C82.7711 265.482 74.8738 262.983 56.2803 259.085C36.2873 254.886 30.2894 253.087 12.8955 246.389L0 241.291L7.59735 234.194C11.7959 230.195 15.3946 226.097 15.3946 225.097C15.4946 223.997 15.5946 220.599 15.6945 217.6C15.7945 213.401 16.8941 209.802 20.1929 202.605C22.4921 197.407 25.0912 192.109 25.891 190.809C27.9902 187.511 43.6847 177.514 56.8801 170.917L67.9763 165.418L72.7746 167.518C79.3723 170.417 84.6704 170.317 87.8693 167.118C92.1678 162.819 93.4673 158.021 94.2671 143.626C94.8669 133.03 95.5666 128.632 97.5659 123.134C98.9654 119.235 101.265 112.937 102.664 109.139C104.663 103.741 105.263 100.242 105.263 93.6445C105.263 81.6488 104.164 78.7498 96.5663 70.3529C89.9686 63.0555 85.2702 55.0584 85.2702 50.8599C85.2702 47.3612 88.4691 44.962 95.0668 43.8624C102.264 42.5629 105.663 40.5636 107.263 36.665C108.262 34.3659 108.262 33.0663 107.362 30.7672C105.963 27.4683 103.664 26.0689 96.7662 24.3695C90.9682 22.97 89.8686 20.7708 93.3674 17.0722C96.5663 13.6734 101.165 12.6737 113.46 12.6737H124.257L133.753 7.67554C138.951 4.87655 144.05 2.67734 145.049 2.67734C149.548 2.67734 153.146 10.1746 153.246 19.4713C153.246 29.1677 163.843 33.8661 188.734 35.2656C203.429 36.1653 205.828 35.0656 220.023 21.3706C230.519 11.3742 231.019 10.9744 239.316 8.37531C244.015 6.87585 249.613 4.37672 251.812 2.67734C255.011 0.278205 256.41 -0.221644 259.709 0.0782471C262.208 0.378139 264.308 1.37781 265.407 2.67734Z" fill="white"/>
</svg>
