<svg width="994" height="994" viewBox="0 0 994 994" fill="none" xmlns="http://www.w3.org/2000/svg">
<path d="M332.862 2.70514C331.663 4.30457 329.463 7.60339 327.864 10.1025C325.565 13.9012 323.765 15.4008 318.267 17.9998C314.469 19.7992 309.071 22.8981 306.172 24.9973C302.173 27.8963 299.574 28.8959 295.175 29.3958C287.978 30.1955 282.08 33.3944 278.981 38.2927C275.882 43.0909 273.483 43.5908 267.085 41.0917C264.186 39.8921 259.588 38.9924 256.989 38.9924C252.89 38.9924 251.391 38.3926 247.992 35.5936C241.594 30.1955 228.499 28.4961 221.901 31.9949C216.503 34.8939 222.101 46.8896 231.398 52.0878C237.896 55.6866 238.395 56.5862 239.295 64.2835C239.995 70.6813 242.894 77.3789 245.693 78.7784C246.593 79.2783 250.091 79.978 253.29 80.2779C261.387 81.0776 262.287 82.2772 257.789 86.3757C255.489 88.475 251.291 90.6743 246.193 92.3737C236.496 95.5725 229.499 100.471 221.601 109.368C213.104 118.964 212.005 119.364 196.91 118.664C176.317 117.665 169.919 114.666 169.919 105.769C169.919 97.7717 166.021 90.6742 159.723 87.3754C154.725 84.7762 151.026 85.676 138.331 92.6735C131.733 96.2723 131.433 96.3722 121.836 96.0723C109.541 95.7724 102.743 97.5718 98.3447 102.17C92.6467 108.068 91.4471 113.266 94.446 118.864C95.9455 121.863 98.3447 122.963 103.543 122.963C105.142 122.963 107.441 123.563 108.441 124.362C110.24 125.662 110.24 125.762 108.341 126.262C107.341 126.562 103.743 127.361 100.444 128.061C95.6456 128.961 93.6463 129.96 90.5474 133.059C86.9487 136.758 86.7487 137.258 87.1486 141.956C87.8483 148.554 92.6467 158.051 99.3443 165.648C109.441 177.144 110.141 184.541 103.143 203.035C97.445 217.83 95.9455 224.427 95.9455 234.524C95.8455 244.42 94.8459 250.518 92.6467 252.617C91.4471 253.817 90.5474 253.717 85.849 251.918C78.5516 249.019 74.1532 249.618 62.7572 255.216C42.8642 264.913 26.9697 277.409 24.9704 284.906C24.3707 287.105 22.5713 292.003 20.9718 295.802C18.7726 300.8 17.9729 304.399 17.9729 308.498V314.196L11.3752 320.294C7.77649 323.592 3.67793 328.291 2.27842 330.59C-0.120736 334.688 -0.220701 335.488 0.179159 347.184C0.579018 361.479 1.07884 362.579 10.5755 373.075C14.1742 377.074 18.4727 383.171 20.0722 386.57C23.371 393.468 26.4699 396.467 31.2682 397.366C42.1644 399.466 44.2637 400.265 49.4618 404.564L54.9599 409.162L63.6568 407.963C73.4534 406.763 77.9518 404.364 81.9504 398.466C83.3499 396.467 84.7494 394.867 85.2493 394.867C86.1489 394.867 86.2489 394.667 84.3496 400.865C81.0507 411.961 85.0493 429.455 91.4471 431.854C94.8459 433.154 110.141 433.154 115.739 431.854C119.337 430.955 120.837 431.154 126.235 433.354C134.132 436.653 138.63 436.153 146.828 430.855C150.126 428.755 156.224 425.357 160.323 423.557C169.02 419.459 175.318 415.36 182.915 408.662C186.114 405.863 190.112 403.364 192.412 402.764C194.611 402.165 200.209 400.565 204.807 399.166C215.903 395.867 216.303 396.467 213.304 410.662C211.305 420.358 211.905 426.056 216.003 434.453C219.802 442.65 224.8 448.248 230.798 451.347C233.297 452.647 238.096 455.746 241.394 458.345C250.291 465.242 251.991 465.942 264.286 466.842C272.383 467.442 277.582 468.541 283.38 470.641C293.476 474.239 294.776 474.939 300.873 480.337C308.571 487.135 309.67 487.635 319.767 488.834C331.163 490.134 334.262 491.833 337.561 498.331C340.06 503.129 340.16 503.829 339.56 515.925C338.86 529.52 338.76 528.82 345.158 539.117C346.657 541.616 348.357 546.314 348.957 549.713C349.856 554.711 350.456 555.911 352.255 556.31C353.355 556.51 362.452 557.01 372.348 557.31C382.245 557.71 390.742 558.31 391.242 558.81C391.642 559.209 391.442 563.508 390.642 568.306L389.142 576.903L391.941 580.802C393.541 583.001 397.24 586.1 400.139 587.799C408.935 592.698 410.335 594.797 410.235 602.594C410.135 607.492 409.235 611.591 406.836 617.789L403.637 626.286L403.737 647.278C404.037 698.46 404.037 698.76 406.636 700.86C409.335 702.959 412.834 703.959 424.83 705.758C434.726 707.357 439.725 707.457 445.423 706.358C449.321 705.558 449.721 705.758 455.719 710.756C463.116 716.954 464.416 719.453 465.316 730.749C466.715 748.143 473.913 755.041 485.509 750.242C490.007 748.343 489.507 748.243 491.306 751.742C494.006 757.04 492.506 766.537 487.208 776.933C484.609 782.031 484.209 786.629 485.908 789.928C487.208 792.327 494.205 795.626 498.004 795.726C502.603 795.726 504.302 799.625 504.302 810.221C504.202 825.316 500.503 830.514 483.609 838.711C478.911 841.01 472.813 844.709 470.114 847.008C467.515 849.207 462.117 853.406 458.118 856.305C452.22 860.703 450.021 863.203 445.623 870.4C442.624 875.298 437.925 881.396 434.926 884.195C422.531 895.491 418.832 900.19 418.832 904.388C418.832 908.387 421.431 909.686 428.928 909.686C437.625 909.686 440.324 910.986 449.321 919.683C457.019 927.08 463.116 930.679 467.815 930.679C470.314 930.679 472.613 932.278 479.711 939.076C485.309 944.274 491.207 948.872 495.605 951.172C504.102 955.57 505.302 956.87 506.901 962.967C508.001 966.766 508.001 968.765 506.901 973.364C503.902 987.059 504.202 990.558 508.301 992.457C514.898 995.456 521.196 992.657 528.593 983.46C532.192 978.862 532.892 973.564 530.093 970.465C528.593 968.765 528.593 968.665 530.893 968.665C534.091 968.565 537.09 966.766 539.689 963.467C543.588 958.569 544.788 954.171 544.788 944.874C544.788 936.677 544.988 935.877 547.387 933.578C550.286 930.879 559.782 917.084 559.782 915.484C559.782 913.685 563.881 908.687 565.28 908.687C567.78 908.687 568.079 913.185 565.98 917.883C564.981 920.182 561.582 925.281 558.483 929.179C552.485 936.477 550.885 941.075 552.685 944.574C555.184 949.172 562.481 945.873 573.777 934.977C583.574 925.681 587.573 919.683 593.371 905.987C599.368 891.693 598.769 892.592 610.964 879.197C627.659 861.003 632.457 848.608 628.258 835.212C626.559 830.014 626.559 828.915 627.858 823.317C628.658 820.018 629.258 811.821 629.358 805.223C629.358 798.625 629.458 792.727 629.558 792.028C629.658 791.328 632.157 788.929 635.056 786.729C637.855 784.53 643.153 780.232 646.752 777.133C657.648 767.836 677.441 758.739 700.733 752.342C709.03 750.042 718.427 744.044 726.524 735.847L733.921 728.45L739.719 729.05C742.918 729.35 748.316 730.849 751.815 732.349C757.713 735.048 759.112 735.248 769.709 735.248C784.104 735.148 787.302 733.848 791.901 726.251C793.9 722.852 796.799 719.853 800.098 717.654C811.094 710.456 813.393 707.457 822.69 688.264C827.488 678.368 834.386 665.872 837.885 660.474C844.582 650.477 846.682 644.979 850.18 628.685C851.18 623.887 852.979 619.088 855.179 615.69C865.275 599.595 864.875 600.895 867.974 581.302C868.774 576.203 871.373 567.007 873.972 560.109C880.37 543.115 880.969 538.817 880.27 515.825C879.37 484.736 879.97 483.336 897.464 478.838C903.661 477.238 909.06 471.34 916.657 457.945C922.755 447.349 924.054 445.649 938.049 432.454C968.739 403.464 975.136 395.767 985.033 375.974C991.731 362.779 993.93 353.682 993.13 342.886C992.23 331.39 990.131 320.294 986.432 308.398C982.934 296.702 980.834 292.303 976.436 287.405C971.938 282.207 966.739 279.908 956.843 278.808C939.149 276.809 932.251 273.71 923.455 263.713C920.056 259.715 911.559 250.718 904.661 243.82C891.466 230.525 885.368 226.327 872.173 221.428C861.576 217.43 856.878 216.83 843.783 217.93C833.386 218.829 831.387 218.729 824.289 216.93C819.891 215.83 812.693 213.331 808.295 211.332C794.9 205.434 789.502 203.734 782.704 203.235C774.007 202.535 764.011 205.034 754.914 210.032C750.815 212.232 747.317 213.931 747.117 213.631C746.817 213.431 747.117 211.232 747.616 208.833C748.916 203.335 748.916 195.637 747.716 190.539C745.917 182.442 740.519 178.443 727.224 174.945C713.229 171.346 710.13 170.046 701.533 164.948C691.036 158.65 685.538 157.551 672.943 158.95C667.744 159.55 662.646 160.45 661.447 161.049C660.347 161.649 655.749 165.648 651.15 169.946C644.153 176.544 641.654 178.243 634.656 180.943C617.562 187.54 611.164 189.24 607.066 188.44L603.267 187.64L607.266 186.74C624.76 182.642 627.159 181.842 633.756 177.444C645.652 169.547 647.951 165.048 645.752 154.352C644.753 149.753 643.653 147.654 640.654 144.555L636.755 140.657L623.56 141.156L610.465 141.656L614.063 139.757C618.162 137.758 619.561 134.259 618.162 130.16C616.063 124.262 605.366 125.362 598.569 132.16C593.671 137.058 593.471 140.457 598.069 142.456L601.268 143.756L598.269 144.455C591.171 145.955 584.574 150.953 574.877 162.449C570.878 167.147 569.979 166.048 571.878 159.15C573.178 154.352 573.777 153.752 592.171 136.058C599.668 128.861 606.166 119.664 607.965 113.766C609.465 108.568 607.766 95.8724 605.066 92.0737C603.967 90.6742 599.768 86.5757 595.67 83.0769C591.571 79.4781 587.473 75.4796 586.573 74.0801C585.673 72.6805 583.974 66.7827 582.774 60.9847C578.276 39.6921 573.378 28.9959 567.88 28.9959C565.081 28.9959 558.183 35.3937 550.286 45.2902C545.687 51.0882 543.088 55.4866 540.689 61.7844C537.29 71.0812 534.291 75.7795 529.993 78.6785C527.694 80.1779 525.195 80.4778 512.799 80.4778C504.802 80.4778 497.504 80.8777 496.605 81.3775C495.305 81.9773 493.506 80.8777 489.307 76.9791L483.809 71.6809L471.114 72.3807C454.719 73.3803 449.221 74.4799 447.222 77.4789C445.723 79.7781 446.022 81.5774 449.321 89.1747C450.421 91.8738 444.623 91.4739 434.626 88.2751C429.128 86.4757 424.03 85.576 419.632 85.576C413.234 85.4761 412.334 85.7759 397.44 93.3733C382.345 101.171 381.845 101.271 378.046 100.171C373.548 98.7714 362.452 90.7742 359.453 86.6757C357.554 84.1765 357.354 82.1772 357.054 68.6819L356.754 53.4873L359.953 48.689C365.851 39.7922 364.651 29.7956 356.854 22.6981C353.055 19.3993 352.855 18.7995 352.855 13.5013C352.855 6.40381 351.756 4.30463 346.557 1.90546C340.26 -0.893555 335.461 -0.593689 332.862 2.70514Z" fill="black"/>
</svg>
