<svg width="93" height="121" viewBox="0 0 93 121" fill="none" xmlns="http://www.w3.org/2000/svg">
<path d="M33.066 0.818687C36.0649 1.31851 43.0624 4.1175 48.7604 6.81655C57.4574 11.115 60.5562 13.4142 69.0533 21.6114C74.6513 26.9095 82.2487 35.1066 85.9474 39.805L92.745 48.302L87.8467 53.5001C85.0476 56.4991 81.5489 61.7972 79.5496 65.9957C76.8505 71.8937 74.7513 74.4927 69.1532 79.491L62.1557 85.7888L61.7558 99.1841C61.4559 113.779 60.5563 116.478 54.7583 119.677C51.1596 121.776 46.7611 119.677 40.3634 112.979C35.2652 107.681 35.0652 107.581 27.168 106.582L19.1708 105.582L19.6706 100.084C20.1705 95.0855 19.9706 94.3858 16.4718 89.2876C13.3729 84.6892 12.5731 82.4899 11.7734 76.0922C10.8737 68.9947 9.27433 58.7983 6.97514 46.8025C6.47531 44.3034 6.07542 39.705 6.07542 36.5061C5.97545 32.3076 5.17577 28.7088 2.97654 23.8106C-0.222333 16.5131 -0.822143 10.4153 1.07719 4.9172C2.37673 1.31847 3.47631 0.918617 14.9723 0.518761C19.6706 0.318832 24.469 0.118912 25.5686 0.0189438C26.7682 -0.0810242 30.167 0.218895 33.066 0.818687Z" fill="white"/>
</svg>
