<svg width="50" height="78" viewBox="0 0 50 78" fill="none" xmlns="http://www.w3.org/2000/svg">
<path d="M42.5599 3.49879C46.0587 5.49808 49.0577 7.39743 49.3576 7.89725C50.1573 9.09683 46.4586 27.4904 44.2593 33.9881C43.1597 36.987 38.3614 45.684 33.6631 53.3813C28.9647 60.9786 24.0665 69.5756 22.7669 72.6745C20.8676 77.1729 20.1678 77.9726 18.4684 77.5727C17.3688 77.2728 14.4698 76.973 12.0707 76.973C8.37199 76.973 7.17239 76.3732 3.87354 73.0743C-0.424944 68.7758 -1.02475 65.7769 1.47438 60.9786C2.57399 58.7794 4.27343 57.7797 8.67188 56.4802C16.5691 54.181 20.1678 50.0824 23.4667 39.886C27.2653 27.6903 27.4653 25.3911 24.9661 17.094C22.7669 9.79657 22.7669 9.79657 24.6662 7.19749C26.2656 4.99826 34.0629 7.62939e-06 35.7623 7.62939e-06C36.0622 7.62939e-06 39.0612 1.59945 42.5599 3.49879Z" fill="white"/>
</svg>
