<svg width="274" height="262" viewBox="0 0 274 262" fill="none" xmlns="http://www.w3.org/2000/svg">
<path d="M83.5205 4.52124C84.6201 7.22029 86.0196 12.0186 86.7194 15.3174C89.0186 27.6131 90.618 29.8123 100.714 35.8102C103.014 37.2097 106.013 40.1087 107.312 42.4079C108.612 44.6071 110.811 47.0063 112.11 47.6061C115.909 49.3055 127.805 50.605 160.193 52.8042C176.688 53.9039 202.579 55.7032 217.673 56.8028C232.768 57.9025 251.361 59.202 258.959 59.6019C266.556 60.1017 272.954 60.8015 273.154 61.0014C273.454 61.3013 271.754 66.7993 269.555 73.397L265.357 85.2928L264.557 107.285C263.757 128.178 263.757 129.477 265.656 133.976C267.556 138.474 267.656 139.074 266.256 145.172C263.957 154.768 259.958 164.065 254.56 172.062C251.861 175.961 249.662 179.96 249.662 180.859C249.662 181.759 246.263 186.457 242.065 191.356C237.866 196.154 233.668 201.852 232.568 203.951C231.468 206.05 227.67 210.049 224.071 212.848C220.472 215.747 215.874 220.545 213.775 223.644C211.575 226.743 208.776 230.342 207.277 231.641C203.278 235.44 202.379 239.339 203.678 248.735C204.278 253.234 204.578 257.532 204.278 258.232C203.778 259.532 193.982 262.331 193.082 261.431C192.782 261.231 193.482 259.432 194.581 257.632C195.881 255.433 196.681 252.534 196.681 249.535C196.681 245.636 196.281 244.537 193.582 242.338C188.584 238.139 183.485 239.339 179.187 245.836L176.688 249.735H163.392H150.097L142.2 244.937C134.702 240.538 133.803 240.238 127.205 240.238C118.508 240.338 115.209 241.938 109.511 249.235C107.212 252.234 103.713 255.433 101.914 256.333C98.6151 257.832 98.5152 257.832 94.2167 254.433C91.8175 252.634 87.719 249.935 85.1199 248.635L80.5215 246.236L80.9214 233.741L81.2213 221.245L78.3223 219.945C76.5229 219.046 69.0256 218.246 56.8299 217.746C46.6334 217.246 38.1364 216.847 38.0365 216.847C37.8365 216.747 37.7366 215.047 37.7366 212.948C37.7366 210.049 36.637 207.45 33.5381 202.652L29.2396 196.254V182.159C29.2396 168.264 29.2395 168.064 25.9407 161.766L22.7418 155.468L30.839 147.471C43.6345 134.875 46.8334 124.879 41.2353 114.383C39.336 110.684 38.7362 108.185 38.7362 102.987C38.7362 95.3893 37.3367 91.8905 33.738 90.1911C28.2399 87.592 19.7429 85.5927 11.3459 84.9929C2.44898 84.2932 2.349 84.2932 1.54928 81.2942C0.24974 76.9957 -0.549975 45.107 0.449674 39.8088L1.34936 35.3104L28.7397 34.7106C43.8344 34.3108 59.9288 34.0108 64.3272 33.9109C72.2244 33.8109 72.5243 33.7109 73.624 31.0119C75.6233 26.0136 76.8228 18.4163 76.9228 10.819C77.0228 5.72081 77.5226 2.72186 78.5222 1.52228C80.7214 -0.976843 81.2213 -0.676932 83.5205 4.52124Z" fill="white"/>
</svg>
