<svg width="92" height="46" viewBox="0 0 92 46" fill="none" xmlns="http://www.w3.org/2000/svg">
<path d="M29.5309 0.679111C29.5309 0.979006 28.4313 2.87836 27.0317 4.87766C22.8332 10.9755 23.533 12.6749 31.3303 16.3736C40.627 20.6721 48.0244 20.872 52.4229 16.6735C54.0223 15.0741 55.5218 12.8748 55.7217 11.6753C56.1216 8.87625 59.4204 8.47638 65.2183 10.4757C68.2173 11.4753 73.3155 12.0751 79.5133 12.0751H89.2099L89.9097 17.2733C90.3095 20.1723 90.8094 24.4707 91.1093 26.7699L91.7091 31.0685H85.5112C80.2131 31.0685 78.4137 31.5683 74.5151 34.0674C71.1163 36.2666 67.8174 37.3662 61.9195 38.1659C56.1215 38.9656 52.3229 40.1652 47.7245 42.6643C41.1268 46.363 37.9279 46.6629 36.1286 43.8639C35.3288 42.5644 35.6287 41.2648 37.3281 38.2659C41.3267 31.1684 39.5274 26.57 32.2299 25.3705C26.8318 24.5707 24.2327 25.5704 18.0349 30.9685C11.8371 36.3666 9.03813 37.3662 4.83961 35.4669C-0.758422 32.9678 -0.758453 32.8678 1.14088 26.57C2.24049 22.5714 2.64035 18.6728 2.24049 14.5743L1.84065 8.37644L6.13911 8.87626C11.9371 9.47604 14.8361 8.57638 18.8347 5.07761C23.1332 1.37891 29.5309 -1.32019 29.5309 0.679111Z" fill="white"/>
</svg>
