<svg width="135" height="99" viewBox="0 0 135 99" fill="none" xmlns="http://www.w3.org/2000/svg">
<path d="M37.9853 2.0993C41.4841 3.89866 44.8829 4.29851 62.1768 5.09823C96.3648 6.69767 102.163 9.69661 107.761 28.0901C108.86 31.4889 110.56 35.1877 111.559 36.3872C112.959 37.8867 113.659 40.3858 113.959 44.8842C114.358 50.5822 114.758 51.5819 117.657 54.181C120.656 56.88 121.556 57.0799 126.654 56.7801L132.252 56.4802L133.652 60.5787C135.051 64.4774 134.951 64.8772 132.852 67.5763C129.953 71.175 127.754 76.4731 127.754 79.572C127.754 81.1715 127.154 81.9712 126.054 81.9712C123.855 81.9712 118.157 85.37 114.558 88.7688L111.859 91.2679L106.061 87.7692C99.3637 83.6706 97.6643 82.9708 92.3662 81.9712C85.7685 80.6717 81.9698 82.471 73.5728 91.068C64.7759 99.9649 65.3757 99.9649 54.8794 93.4672C47.9818 89.2686 40.2845 87.1694 28.1887 86.3697L18.992 85.6699L17.8924 81.4714C17.1926 78.7723 15.6931 76.1732 13.7938 74.6738C10.5949 71.9747 9.4953 71.5749 3.59738 70.4752C-0.901042 69.7755 -1.00099 68.9758 2.29785 61.3784C5.79662 53.3813 7.79589 45.1841 7.79589 38.3865C7.89586 31.289 9.59526 27.2904 16.2929 18.3935C21.591 11.296 31.9874 2.28882e-05 33.187 2.28882e-05C33.5868 2.28882e-05 35.6861 0.899718 37.9853 2.0993Z" fill="white"/>
</svg>
