<svg width="88" height="45" viewBox="0 0 88 45" fill="none" xmlns="http://www.w3.org/2000/svg">
<path d="M70.225 3.50269C75.1233 7.60124 79.022 9.00074 83.9202 8.20102C86.9192 7.7012 87.419 7.90114 87.419 9.50058C87.419 11.6998 84.2201 17.2978 81.0212 20.6966C79.9216 21.9962 75.6232 25.395 71.6246 28.194C66.8263 31.4928 63.4274 34.6917 61.728 37.5907C57.9294 44.1884 56.3299 44.8881 45.8336 44.8881C37.9364 44.8881 35.4373 44.4883 29.2394 41.9891C25.2409 40.3897 19.6428 38.7903 16.8438 38.3904C13.1451 37.8906 11.0459 36.9909 9.54639 35.2915C7.94696 33.4921 6.44749 32.8923 3.34858 32.8923C-2.14949 32.8923 -0.849976 31.4929 7.04725 28.8938C11.7456 27.2943 14.8445 26.8945 18.2434 27.2943C20.8424 27.5942 27.1402 28.194 32.1384 28.4939C40.8354 29.0937 41.7351 28.9937 46.8333 26.4946C51.5316 24.1954 52.7312 22.9958 54.9304 18.3975C56.3299 15.3985 57.4296 12.4995 57.4296 11.8997C57.4296 10.7001 61.1283 3.10281 62.6278 1.10352C64.2272 -0.795817 65.7266 -0.395944 70.225 3.50269Z" fill="white"/>
</svg>
