<svg width="145" height="163" viewBox="0 0 145 163" fill="none" xmlns="http://www.w3.org/2000/svg">
<path d="M114.96 0.912216C116.659 1.8119 116.859 3.01148 116.759 8.90941C116.659 16.3068 117.459 18.1062 121.857 20.2054C123.257 20.8052 125.356 23.2044 126.356 25.3036L128.255 29.2023L124.356 36.7996C120.558 44.097 120.458 44.7968 120.158 55.593C119.958 61.8908 120.358 70.0879 120.957 73.9866C122.357 82.3836 124.756 85.4825 135.652 93.5796C144.149 99.7775 144.949 101.777 144.949 115.072C144.949 122.769 144.749 123.869 143.25 123.869C142.25 123.869 135.852 124.369 128.955 124.869C113.66 125.968 112.96 126.468 112.96 137.064C112.96 143.462 112.66 144.262 110.061 146.961C106.363 150.66 103.264 150.66 98.4654 146.861C94.0669 143.362 91.9677 143.162 86.4696 145.761C81.0715 148.16 80.0718 149.56 78.8723 156.557L77.7727 162.555L73.874 161.856C69.5756 161.056 65.9768 158.257 62.8779 153.259C61.3784 150.76 61.0785 149.06 61.5784 145.961C61.9782 143.262 61.6783 140.363 60.6787 137.564C57.9796 130.267 57.7797 127.368 59.5791 122.969C61.9782 116.772 61.1785 108.274 57.4798 102.676C55.1806 99.2776 54.4809 96.7785 53.981 90.9806C53.4812 84.2829 53.0813 83.3832 50.1824 80.6842C48.383 79.0848 45.484 77.5853 43.7846 77.1854C41.3854 76.6856 40.3858 75.6859 38.8863 72.1872C36.6871 67.089 32.6885 64.8898 25.591 64.8898C20.0929 64.8898 19.0933 63.4903 17.8937 53.5937C16.7941 45.1967 15.3946 42.6976 9.19676 38.8989C1.59943 34.2006 0 32.901 0 31.2016C0 29.902 0.799717 29.7021 5.09821 30.202C7.89722 30.6018 11.396 31.6015 12.7955 32.6011C18.8934 36.9996 20.5928 37.7993 25.3911 38.499C28.1901 38.7989 33.1883 39.9985 36.4872 41.0981C45.384 43.8971 49.2827 42.9974 55.4805 36.3998C61.4784 30.102 62.7779 29.4022 70.1753 28.5025C74.7737 27.9028 77.0729 26.9031 81.1715 23.8042C84.0704 21.605 89.3686 18.4061 92.9673 16.8066C100.165 13.5078 103.464 10.8088 105.663 6.41032C108.862 0.212503 111.061 -1.18705 114.96 0.912216Z" fill="white"/>
</svg>
