<svg width="195" height="129" viewBox="0 0 195 129" fill="none" xmlns="http://www.w3.org/2000/svg">
<path d="M73.2772 3.11517C74.4768 4.71461 76.8759 7.41366 78.6753 9.31299C82.7739 13.5115 85.5729 13.6115 95.0695 10.2127C98.8682 8.81317 104.966 7.51361 108.665 7.21371C120.161 6.21407 123.06 9.21301 125.359 24.5076C127.558 39.6023 129.557 42.4014 137.455 41.5017L140.354 41.2018L140.054 51.898C139.754 61.0948 140.054 63.294 141.953 67.6924C146.751 78.7885 153.449 80.288 171.543 74.1902C180.34 71.2912 182.339 70.8913 184.138 71.891C185.338 72.5907 188.237 73.3904 190.636 73.6903L194.934 74.1902L187.637 81.6875C178.94 90.7843 170.343 95.3827 155.348 99.1814C141.953 102.58 115.163 115.975 106.765 123.373C103.467 126.272 100.568 128.671 100.368 128.671C100.068 128.671 99.1681 126.872 98.2685 124.672C96.0692 119.174 92.2706 117.175 86.7725 118.675C84.4733 119.274 82.0741 119.574 81.3744 119.274C80.5746 118.974 79.7749 116.175 79.3751 111.977C78.8753 107.378 77.8756 104.08 76.3761 101.681C75.0766 99.7812 73.4771 96.1824 72.8773 93.6833C70.2783 84.0867 64.6803 76.6893 56.6831 72.5907C50.5852 69.4918 39.1892 67.7924 23.8946 67.6924C10.3993 67.5925 1.50244 66.6928 0.10293 65.1933C-0.296929 64.7935 0.5028 63.6939 1.90231 62.7942C12.0987 56.1965 21.0955 42.9012 24.4943 29.4059C26.6936 20.509 29.1927 16.9103 35.8903 13.2116C38.8893 11.5122 41.9882 8.91312 42.688 7.51361C44.4873 3.61498 56.1833 -0.283629 64.7802 0.0162659C70.4782 0.31616 71.3779 0.616052 73.2772 3.11517Z" fill="white"/>
</svg>
