<svg width="118" height="202" viewBox="0 0 118 202" fill="none" xmlns="http://www.w3.org/2000/svg">
<path d="M71.5748 4.03612C75.7734 6.03541 77.6727 9.43424 79.1722 17.8313C80.8716 27.228 80.5717 30.9266 77.2728 37.4244C73.1743 45.4216 73.3742 48.8204 78.4724 59.1167C84.4703 71.2125 89.4686 74.8113 95.0666 70.8127C97.6657 69.0133 98.7653 69.5131 100.765 73.4117C102.164 76.2107 102.164 76.3107 99.1652 78.5099C97.4658 79.7095 94.7667 82.5085 93.1672 84.7077C89.2686 90.1059 89.2686 94.6043 93.3672 100.702C95.4664 103.901 96.5661 107 96.9659 110.899C97.7657 118.796 100.365 121.995 109.462 126.893C113.76 129.192 117.459 131.291 117.759 131.591C118.059 131.791 115.16 134.49 111.361 137.489C102.664 144.387 100.265 147.686 100.265 153.384C100.265 157.282 100.765 158.182 104.763 161.981C107.262 164.28 109.262 166.979 109.262 167.979C109.262 169.078 107.862 172.677 106.063 176.076C102.864 182.173 102.764 182.173 104.563 185.772C107.262 191.57 106.962 192.07 99.765 192.87C95.2665 193.27 91.068 194.669 85.6699 197.468C76.873 201.867 72.8744 202.266 62.678 199.767C57.1799 198.368 55.5805 198.268 52.2816 199.367C47.5833 200.967 46.6836 200.367 45.8839 195.569C45.0842 189.971 41.3855 186.372 36.4872 186.372C31.7888 186.372 30.1894 187.971 27.7902 195.169C26.8905 198.068 25.3911 200.767 24.5914 201.067C22.0922 202.066 16.0944 198.568 16.6942 196.568C19.7931 185.672 19.6931 181.474 15.9944 178.875C12.0958 176.176 8.39705 176.975 3.9986 181.574L0 185.772L0.799744 180.374C1.29957 177.375 1.79938 168.378 1.79938 160.381C1.89934 146.886 2.19924 145.186 5.19818 135.89C11.396 116.996 16.9941 105.001 22.5921 98.7029C33.4883 86.4072 41.2855 73.7117 41.2855 68.0137C41.2855 66.3143 40.5857 63.0154 39.786 60.6163C38.3865 56.7176 38.3865 55.8179 39.786 51.8193C40.5857 49.3202 41.2855 45.9214 41.2855 44.1221C41.2855 41.2231 41.7853 40.5233 45.7839 38.6239C52.9814 35.1252 57.8797 29.927 62.2781 21.2301C67.2764 11.2336 67.2764 9.33425 62.678 5.73552C53.8811 -1.06209 54.081 -0.562232 61.3784 0.937241C65.0771 1.73696 69.6755 3.13643 71.5748 4.03612Z" fill="white"/>
</svg>
