<svg width="218" height="242" viewBox="0 0 218 242" fill="none" xmlns="http://www.w3.org/2000/svg">
<path d="M138.951 10.7962C138.951 15.6945 140.451 18.5935 144.049 20.2929C149.348 22.892 153.646 20.4928 161.643 10.3964C164.442 6.79766 173.139 0.100006 174.939 0.100006C175.338 0.100006 177.538 1.59946 179.837 3.29886C189.034 10.3964 190.333 11.0962 193.532 11.0962C196.631 11.0962 197.131 11.596 199.23 15.7945C200.53 18.4936 203.129 22.992 205.128 25.891C207.627 29.3897 209.326 33.4883 210.426 38.4865C212.725 48.583 212.325 50.0824 207.427 51.7818C203.029 53.1813 198.93 57.18 198.93 59.979C198.93 60.9786 200.23 63.6777 201.829 66.1768C203.428 68.5759 205.028 71.7748 205.428 73.2743C206.327 76.6731 208.827 78.9723 213.525 80.5717C215.624 81.2715 217.424 82.2711 217.624 82.671C218.123 84.1705 208.627 97.1659 204.928 100.165C202.729 101.964 199.33 103.464 195.931 104.063C189.733 105.263 186.434 107.262 183.136 112.061C178.637 118.758 177.838 126.456 178.837 157.545C179.237 170.74 178.837 172.939 172.939 189.034C168.241 201.829 167.441 204.928 165.642 217.224C164.142 227.32 161.743 233.518 157.245 238.516L154.646 241.415L150.047 238.816L145.449 236.317L145.849 230.119C146.049 225.021 145.749 223.322 143.55 219.623C139.451 212.625 139.951 210.926 147.248 206.327C154.046 202.029 156.945 197.731 156.945 191.933C156.945 185.935 145.749 177.538 136.252 176.438C128.255 175.538 127.355 175.138 122.857 171.44C117.859 167.241 110.261 163.643 104.363 162.643C101.464 162.143 98.1655 160.244 92.9673 155.945C81.7713 146.748 77.6727 145.349 71.9747 148.548C65.9768 151.947 60.9786 149.447 60.9786 143.05C60.9786 139.951 60.3788 138.751 57.7797 136.552C54.8807 134.153 53.981 133.853 48.383 134.253C40.0859 134.753 31.4889 139.251 21.5924 148.148C17.3939 151.947 13.0954 155.046 11.9958 155.046C9.09681 155.046 8.09716 152.346 9.19678 147.648C10.4963 142.15 9.59665 137.552 6.49774 132.953C3.4988 128.255 3.39885 126.656 6.0979 119.858C7.89727 115.459 8.0972 113.06 7.7973 105.063C7.49741 98.6653 6.79766 94.3668 5.59808 91.9677C3.79872 88.3689 3.79868 88.3689 6.99756 81.1715C10.7962 72.2746 10.4964 70.1754 4.3985 64.4774C1.99934 62.1782 0 59.4792 0 58.3795C0 56.3803 4.49844 51.7818 11.5959 46.2838C16.5942 42.4851 16.9941 42.3851 19.7931 45.3841C27.1905 53.2813 39.2862 54.181 52.0817 47.8832C58.1796 44.8843 60.3788 43.0849 63.7776 38.5865C66.0768 35.4875 68.1761 31.2891 68.5759 29.2898C70.1754 19.4932 71.8747 17.3939 79.1722 15.5946C81.4714 14.9948 82.1711 15.3946 84.3704 18.9934C86.1697 21.8924 87.9691 23.2919 90.6682 24.0916C95.4665 25.4911 98.1655 24.5914 104.363 19.1933C106.962 16.8941 110.061 15.0948 111.361 15.0948C113.96 15.0948 123.956 10.2964 123.956 8.99686C123.956 8.49703 126.256 6.29783 129.155 4.0986L134.353 3.05176e-05L136.652 3.79874C137.852 5.898 138.951 8.99687 138.951 10.7962Z" fill="white"/>
</svg>
