<svg width="170" height="168" viewBox="0 0 170 168" fill="none" xmlns="http://www.w3.org/2000/svg">
<path d="M72.2327 3.69864C70.1335 16.794 70.1335 16.4942 74.1321 19.4931C76.7312 21.5924 79.2303 22.492 83.1289 22.7919C89.7266 23.2918 91.7259 21.5924 94.0251 13.4952C95.0247 10.0964 96.2243 7.99713 96.9241 8.29703C97.6238 8.49696 99.0233 11.296 100.223 14.5948C102.922 22.1921 105.521 23.6916 112.719 21.8922C116.617 20.8926 118.616 20.8926 122.115 21.7923C127.613 23.2917 137.91 23.3917 142.508 21.9922C144.407 21.4924 147.606 19.8929 149.706 18.4934C154.004 15.4945 167.099 13.0954 168.899 14.8947C169.698 15.6945 169.299 18.1936 167.599 23.7916C164.001 35.5874 163.901 40.0859 167.099 45.5839C169.699 49.9824 170.598 55.5804 169.099 57.8796C168.699 58.6793 167.599 58.4794 165.6 57.4797C161.301 55.2805 155.404 55.5804 152.704 58.0795C149.306 61.2784 147.906 65.4769 147.106 74.4738C146.307 84.3703 145.807 85.9697 144.008 85.9697C142.908 85.9697 142.608 84.4703 142.608 79.9718C142.608 72.6744 140.409 69.7754 133.511 67.976C127.213 66.2766 115.717 67.0764 114.118 69.2756C112.519 71.4748 111.219 82.9708 112.119 86.9694C113.018 91.0679 115.518 92.1675 125.814 92.7673L134.611 93.2672V99.7649C134.611 103.763 135.411 108.962 136.71 112.96L138.909 119.558L136.71 124.356C135.61 127.055 134.611 130.654 134.611 132.353C134.611 142.45 130.112 147.548 120.016 149.048C112.019 150.247 87.3275 149.447 80.4299 147.748C73.7322 146.149 68.9339 147.748 63.5358 153.646C54.1392 163.742 49.5407 167.941 47.8413 167.941C46.8417 167.941 43.4429 166.142 40.344 163.942C32.2468 158.144 22.9501 153.946 17.6519 153.846C8.85503 153.546 7.35556 152.846 6.35591 148.448C5.95605 146.249 4.75649 141.25 3.65688 137.452C2.65723 133.553 1.45763 127.355 1.15773 123.557C0.757874 119.758 0.258053 116.059 0.0581235 115.459C-0.241771 114.86 0.657923 112.96 1.8575 111.261C10.2545 99.8648 14.653 94.8666 20.1511 90.2682C23.6498 87.3692 27.7484 82.8708 29.3479 80.2717C30.8473 77.6726 34.746 72.5745 37.9448 69.0757C41.1437 65.4769 45.3422 59.3791 47.2415 55.5804C49.2408 51.6818 51.3401 47.7831 52.1399 46.9834C54.9389 43.8845 60.6368 30.1893 62.6361 21.9922C63.7357 17.2939 65.1353 11.5959 65.6351 9.19675C66.8347 3.99857 69.3338 -3.05176e-05 71.3331 -3.05176e-05C72.5327 -3.05176e-05 72.7326 0.799658 72.2327 3.69864Z" fill="white"/>
</svg>
