<svg width="162" height="218" viewBox="0 0 162 218" fill="none" xmlns="http://www.w3.org/2000/svg">
<path d="M85.241 6.30061C87.7401 7.50019 90.4392 9.59947 91.0389 10.999C92.7384 14.1979 92.6384 24.994 90.839 32.3914C89.1396 39.5889 89.7394 42.6878 92.9383 43.4876C96.4371 44.3872 99.6359 43.3876 111.132 37.6896C127.326 29.7924 136.423 29.7923 152.817 38.0894C157.216 40.2887 161.014 42.2879 161.214 42.4879C162.014 43.2876 156.716 48.0859 152.317 50.585C138.722 58.2823 137.523 59.7818 136.223 70.0782C135.523 75.6762 135.723 78.6752 136.923 83.6734C138.922 91.7706 138.322 97.7684 134.924 102.767C130.625 108.965 130.125 112.163 132.025 122.06C133.624 130.357 133.624 130.857 131.925 132.756C129.325 135.555 125.427 136.155 120.429 134.356C118.029 133.556 114.331 132.856 112.132 132.856C108.633 132.856 107.433 133.656 100.935 139.754C92.5384 147.751 90.2392 149.05 80.2427 151.749C70.846 154.349 67.3473 157.847 64.4483 167.444C63.3487 171.143 60.7496 176.641 58.6503 179.74L54.8517 185.238L55.2515 195.234C56.2512 216.927 56.0512 218.426 51.6528 216.727C50.1533 216.127 47.3543 214.327 45.6549 212.528C42.8559 209.929 42.3561 208.729 42.3561 204.931C42.3561 200.532 40.9566 196.834 37.0579 191.436C34.5588 188.137 35.4585 185.638 41.3564 179.44C43.9555 176.641 46.3547 173.342 46.7545 172.242C48.354 167.144 42.1562 158.847 36.7581 158.847C34.9587 158.847 33.1593 159.247 32.8594 159.847C31.16 162.546 28.361 160.646 24.7623 154.349C18.7644 143.452 18.5644 142.053 22.3631 135.355L25.6619 129.657L25.0621 118.961C24.4624 107.765 23.2628 103.067 19.9639 98.5682C17.5648 95.3693 9.36766 91.2707 3.46974 90.2711C-0.628823 89.5713 -0.628836 89.5713 1.07057 87.672C3.66965 84.773 5.36904 84.0733 13.4662 82.3739C21.4634 80.6745 23.6627 79.275 26.4617 73.677C27.4613 71.6777 29.9604 68.7787 31.8598 67.3792C36.3582 63.8804 46.7545 43.0877 48.254 34.4907C48.8538 31.1918 49.9534 27.7931 50.8531 26.9934C53.4522 23.9944 57.1509 14.4977 58.3505 7.90004C58.9503 4.30131 59.65 0.902539 59.8499 0.30275C60.3498 -1.19672 79.1431 3.2017 85.241 6.30061Z" fill="white"/>
</svg>
