<svg width="161" height="166" viewBox="0 0 161 166" fill="none" xmlns="http://www.w3.org/2000/svg">
<path d="M41.3425 1.72177C43.7417 2.82138 48.2401 5.32051 51.339 7.11987L56.937 10.5187L73.1313 10.0189L89.3256 9.41907L90.8251 6.22018C92.8244 2.22159 94.9237 0.32226 96.923 1.12198C99.1222 1.9217 98.7223 4.62076 95.9233 9.21915C92.9244 14.1174 92.7245 17.8161 95.4235 20.2153C97.023 21.6148 98.4224 21.8147 103.121 21.4149C106.32 21.115 110.118 20.5152 111.618 20.2153C114.017 19.6155 114.317 19.8154 115.317 23.3142C115.916 25.5134 116.416 28.6123 116.416 30.4117C116.416 37.3093 119.415 39.3086 131.411 40.7081C139.908 41.7077 145.306 43.9069 152.403 49.505C160.301 55.6028 160.401 55.9027 160.401 66.0991V75.1959L155.802 77.5951C148.605 81.4937 145.106 86.292 141.907 97.2882C137.209 113.283 131.111 121.68 118.915 128.877C111.118 133.475 101.022 142.572 98.7223 147.071C97.9226 148.67 95.3236 152.069 92.9244 154.568C90.6252 157.067 87.9261 160.566 87.0265 162.365C85.427 165.564 85.427 165.564 82.628 163.965C80.0289 162.465 79.4291 162.465 74.131 164.165C71.0321 165.064 67.8332 165.664 66.9335 165.264C64.6343 164.465 63.4347 160.266 62.2352 149.67C60.9356 137.874 59.1363 134.175 51.339 127.677C41.3425 119.38 38.0437 118.281 31.0461 121.18C27.8473 122.579 27.0475 122.579 23.8487 121.18C21.8494 120.38 17.6508 119.68 14.452 119.68C1.15663 119.68 -0.1429 118.181 2.05633 106.485C3.35587 99.3874 3.35587 98.1878 1.45653 89.7908C-0.142903 82.6933 -0.342818 79.7943 0.456901 76.3955C0.956725 74.0963 1.15664 67.6986 0.856742 62.2005C0.356918 52.6039 0.456899 51.7042 3.8557 41.8077C6.65472 33.8105 7.45443 29.7119 7.45443 24.5138C7.45443 19.5155 7.85431 17.7162 8.75399 17.7162C11.453 17.7162 19.4502 11.5183 22.749 6.81998C27.7473 -0.0775976 33.6452 -1.67703 41.3425 1.72177Z" fill="white"/>
</svg>
