<svg width="268" height="211" viewBox="0 0 268 211" fill="none" xmlns="http://www.w3.org/2000/svg">
<path d="M170.74 1.22786C171.44 1.92761 171.94 4.32677 171.94 6.62596C171.94 10.1247 172.439 11.3243 174.938 13.4236C179.337 17.0223 183.535 17.5221 189.833 15.123C196.231 12.7238 196.231 12.7238 206.227 21.1208C210.326 24.5196 214.824 27.4186 217.124 28.0184C219.223 28.6182 222.722 29.5179 224.821 30.0177C227.02 30.6175 231.019 32.8167 233.718 34.916C240.316 40.2141 243.514 41.6136 249.912 42.5133C252.911 42.9132 256.81 43.8129 258.409 44.5126C262.708 46.212 267.906 50.9104 267.906 52.9097C267.906 54.909 264.207 58.5077 258.209 62.3064C250.412 67.3046 249.112 74.1022 254.411 82.1994C257.21 86.3979 257.41 90.7964 254.91 92.0959C254.111 92.4958 251.212 93.5954 248.513 94.495C245.914 95.4947 241.715 98.0938 239.316 100.493C234.318 105.191 233.918 107.59 236.417 116.987C237.217 119.986 237.916 123.885 237.916 125.684C237.916 130.183 233.318 144.377 231.219 146.177C230.219 147.077 226.82 148.576 223.621 149.476C217.024 151.375 213.625 154.974 212.025 161.871C211.326 164.97 210.026 167.07 207.427 169.169C203.428 172.468 200.529 177.766 198.23 185.363C197.431 188.162 196.031 191.261 195.131 192.361C191.033 197.059 181.236 198.259 171.24 195.36C163.642 193.16 157.245 194.46 141.55 201.357C127.855 207.455 115.459 211.254 111.161 210.754C109.062 210.554 107.862 209.355 105.563 205.056C102.664 199.658 102.664 199.458 103.764 192.561C105.763 180.265 102.764 173.967 94.9666 173.967C90.4682 173.967 90.4682 174.067 88.4689 160.772C86.6695 148.776 84.6702 144.977 78.3724 141.878C74.4738 140.079 72.6745 139.779 65.6769 140.279C60.5787 140.579 54.3809 141.778 49.4826 143.378L41.4854 146.077L39.786 143.778C34.7878 137.08 33.3883 135.581 30.3893 134.381C25.4911 132.282 13.9951 132.582 7.29742 134.981C4.09855 136.08 1.1996 136.98 0.799744 136.98C0.399884 136.98 0 134.781 0 131.982V127.084L11.8958 114.988C18.3935 108.39 24.3914 102.992 25.0912 102.992C25.8909 102.992 28.6899 103.692 31.389 104.492C37.1869 106.291 66.5766 106.591 75.0736 104.991C84.1704 103.292 90.968 95.0948 90.968 85.7981C90.968 83.399 91.8677 79.5003 92.9673 77.1012C95.4665 71.6031 95.4665 66.9048 92.9673 59.7073C89.5685 50.1107 90.8681 44.0128 96.3661 42.6133C101.064 41.4137 103.064 36.9153 103.963 25.8192C104.663 17.6221 105.163 15.4229 106.862 13.7235C109.162 11.4243 108.762 11.2243 120.858 18.0219C129.155 22.6203 132.653 22.2204 139.751 15.7227C152.846 3.62699 166.641 -2.8707 170.74 1.22786Z" fill="white"/>
</svg>
