<svg width="322" height="308" viewBox="0 0 322 308" fill="none" xmlns="http://www.w3.org/2000/svg">
<path d="M98.347 0.799744C98.6469 1.29957 99.3466 5.29816 99.8464 9.89655C100.346 14.395 101.146 18.4935 101.646 18.9933C102.146 19.4932 106.344 20.5927 110.943 21.3925C115.541 22.1922 121.539 23.5917 124.138 24.4914C129.036 26.0908 136.933 32.7885 136.933 35.2876C136.933 36.0873 138.733 38.8863 140.932 41.3854C144.531 45.584 144.931 46.4837 144.931 51.6818C144.931 58.7793 147.23 63.8776 153.328 70.7751C156.926 74.8737 157.926 76.673 157.926 79.472C157.926 84.7702 162.724 89.2686 170.222 90.868C174.52 91.8677 176.819 91.9677 179.518 91.068C182.517 90.1683 183.617 90.2682 186.216 91.9677C192.614 95.7663 196.912 94.0669 204.51 84.6702C208.108 80.1718 211.607 77.0729 214.806 75.4734C222.004 71.7748 238.498 69.1757 251.193 69.6755C254.292 69.8754 255.292 70.4752 256.891 73.0743C257.991 74.8736 258.891 78.0725 258.891 80.0718C258.891 87.4692 246.895 95.6664 231.9 98.3654C218.705 100.865 216.006 101.764 214.306 104.363C212.907 106.463 212.907 107.062 214.206 109.561C215.006 111.061 217.505 113.36 219.704 114.66C227.102 118.758 236.698 117.259 259.29 108.462C267.088 105.363 269.087 104.063 276.284 97.0659C283.682 89.7684 284.881 88.9687 290.279 87.8691C299.376 85.9697 306.674 86.8695 314.571 90.968L321.369 94.4668L321.169 100.265C320.869 107.762 318.47 116.259 314.771 121.857C313.271 124.356 311.272 129.355 310.572 132.853C309.773 136.452 307.573 142.45 305.574 146.149C303.475 149.947 301.875 153.646 301.875 154.546C301.875 155.345 299.476 158.544 296.577 161.643C293.578 164.742 290.179 169.041 288.98 171.14C286.681 174.938 285.881 175.238 277.684 176.338C272.686 176.938 267.587 180.137 261.39 186.534C253.292 194.832 253.292 196.631 261.39 202.729C264.489 205.028 266.888 207.727 266.888 208.627C266.888 209.626 264.788 213.525 262.189 217.324C258.291 222.922 256.191 224.921 251.193 227.72C243.796 231.818 242.596 233.918 240.997 246.213C239.897 254.011 239.997 255.61 241.497 259.909L243.296 264.707L238.498 272.604C235.799 276.903 230.9 283.5 227.502 287.199C223.903 290.998 219.904 296.796 218.005 300.594L214.706 307.392L208.108 306.992C204.41 306.892 189.715 305.792 175.42 304.793C161.125 303.693 132.535 301.694 111.942 300.294C72.1562 297.595 55.3621 296.196 53.8626 295.296C53.3628 294.896 51.5634 292.697 49.864 290.198C47.9647 287.499 44.7658 284.6 41.367 282.601C34.4694 278.802 33.3698 277.103 31.5704 267.806C29.971 259.509 26.5722 251.112 22.5736 245.914C21.1741 244.014 19.9745 241.815 19.9745 241.015C19.9745 240.116 18.8749 238.016 17.4754 236.217L14.9763 233.018L28.5715 201.129C35.9689 183.635 46.5652 160.144 51.9633 148.848C66.6581 118.158 68.0576 114.06 64.059 111.861C62.9594 111.361 60.5602 110.861 58.6609 110.861C56.1618 110.861 53.9625 109.861 50.9636 107.362C48.6644 105.463 45.5655 103.564 44.0661 103.164C42.6665 102.864 38.9678 100.865 35.9689 98.8652C32.9699 96.766 27.9717 93.867 24.9728 92.3676C21.474 90.5682 16.0759 86.1697 10.2779 80.2718L0.981213 70.8751V55.6804C0.981213 47.2834 0.681315 37.9866 0.381421 35.0876C-0.318333 30.0894 -0.218369 29.8895 2.08082 29.8895C3.38037 29.8895 11.2776 26.4907 19.4747 22.2922C27.7718 18.1936 36.2688 14.4949 38.468 14.195C41.167 13.8951 44.9657 14.5948 50.4638 16.2943C59.8605 19.3932 69.3571 20.4928 73.1558 18.9933C74.6553 18.4935 76.5546 16.8941 77.4543 15.5945C78.9538 13.2954 78.8538 12.6955 77.0545 7.79724C75.9548 4.89826 75.1551 2.29917 75.455 2.09924C75.6549 1.89931 80.2533 1.29952 85.6514 0.899658C91.0495 0.499799 95.9478 0.0999648 96.6476 0C97.2474 0 98.0471 0.299919 98.347 0.799744Z" fill="white"/>
</svg>
