<svg width="152" height="51" viewBox="0 0 152 51" fill="none" xmlns="http://www.w3.org/2000/svg">
<path d="M28.7642 4.49841C32.4629 9.09679 41.0599 14.195 44.9585 14.195C46.5579 14.195 49.8568 13.6952 52.3559 12.9954C56.2545 12.0957 57.0542 12.0957 57.8539 13.4952C58.7536 15.2946 64.5516 17.194 68.95 17.194C72.5487 17.194 76.3474 15.1946 82.1454 10.1964C85.6442 7.19746 87.6435 6.19781 90.2426 6.19781H93.7413L91.2422 9.39666C86.7438 15.3946 86.8437 17.5938 91.942 22.692C94.541 25.3911 97.34 27.1904 98.6396 27.1904C99.8392 27.1904 104.637 25.3911 109.336 23.1918C115.134 20.4928 120.132 18.8934 125.03 18.2936C131.528 17.4939 133.627 16.7941 141.025 12.4956C143.924 10.7962 149.122 10.8962 150.621 12.5956C151.521 13.7952 151.421 15.3946 150.221 20.093C148.622 26.3907 143.224 38.0866 141.225 39.4861C140.625 39.886 136.726 39.9859 132.628 39.686C124.031 38.9863 121.532 39.686 114.934 44.6843C105.337 52.0817 98.7395 51.8818 90.0426 43.8846C84.6445 38.9863 84.0448 38.6864 79.0465 38.6864C74.2482 38.6864 73.3485 39.0862 69.7498 42.585L65.7512 46.4836L64.7515 44.0845C64.2517 42.685 62.6522 40.1858 61.1528 38.3865C59.0535 35.7874 57.754 35.1876 54.755 35.1876C52.1559 35.1876 50.3565 34.4879 49.057 32.9884C45.9581 29.5896 38.4608 25.1912 35.6617 25.1912C29.9637 25.1912 16.9683 33.8881 14.2693 39.5861C12.7698 42.7849 8.87116 46.1838 6.67194 46.1838C6.17211 46.1838 5.6723 44.4844 5.6723 42.2852C5.6723 39.886 4.47269 36.0873 2.47339 32.1887C-0.125698 27.2904 -0.525517 25.7909 0.574097 25.391C2.57339 24.6913 9.57094 18.1936 10.8705 15.7944C11.4703 14.6948 11.8701 10.6962 11.8701 6.89758L11.6702 -3.8147e-06L18.6677 0.399837C25.3654 0.699732 25.8652 0.899675 28.7642 4.49841Z" fill="white"/>
</svg>
