<svg width="133" height="191" viewBox="0 0 133 191" fill="none" xmlns="http://www.w3.org/2000/svg">
<path d="M112.743 9.91492C112.443 18.7118 112.643 20.0114 115.142 25.4095C117.242 29.9079 118.041 33.6066 118.641 41.7037C119.141 47.5017 120.141 54.6992 120.94 57.7981C121.74 60.797 122.94 68.4943 123.639 74.7921C124.939 86.8879 125.339 88.0874 129.837 93.8854C132.636 97.4841 132.736 97.784 131.737 103.282C131.137 106.481 130.637 112.579 130.637 116.777C130.637 126.274 129.637 128.773 124.539 131.572C122.44 132.772 120.141 134.671 119.641 135.771C119.041 136.77 116.242 139.169 113.343 141.069C110.444 142.868 106.845 145.867 105.146 147.667C101.647 151.365 97.6485 153.664 94.6496 153.664C91.4507 153.664 85.1529 157.263 83.2536 160.062C80.6545 164.161 77.1557 163.461 73.457 158.163C69.7583 152.965 67.659 152.565 58.6622 155.264C51.8646 157.263 47.6661 161.362 47.6661 165.86C47.6661 176.156 40.7685 184.753 29.6724 188.552C26.1736 189.652 22.1751 190.651 20.7756 190.651C16.4771 190.651 9.77941 186.653 6.48057 182.054C4.78117 179.655 2.48199 177.456 1.48234 177.056C-0.117096 176.556 -0.317021 175.957 0.382733 173.857C0.782592 172.358 1.18242 164.361 1.18242 156.064C1.18242 141.169 1.18246 140.969 3.88151 137.47C5.48095 135.471 7.88007 130.173 9.27958 125.774C12.2785 116.278 14.2778 114.278 22.475 112.579C30.3722 110.979 34.3708 108.78 42.4679 101.283C50.5651 93.7854 53.4641 92.6858 57.3627 95.1849C59.462 96.5844 61.3613 96.7844 66.5594 96.3845C72.3574 95.9847 73.457 95.4849 75.9562 92.6859C78.7552 89.5869 78.8551 89.0871 78.2554 82.2895C77.9555 78.3909 77.4556 73.1927 77.0558 70.6935C76.5559 66.7949 76.9558 65.5953 79.5549 61.6967C84.1533 54.8991 85.2529 48.6013 83.2536 40.8041C81.3543 33.4067 81.1544 23.2103 82.9537 19.8115C83.5535 18.5119 86.8523 16.1128 90.0512 14.3134C93.35 12.614 98.7481 8.61539 102.047 5.51648C106.545 1.21799 108.745 -0.181503 110.644 0.0184326L113.143 0.218323L112.743 9.91492Z" fill="white"/>
</svg>
