<svg width="166" height="154" viewBox="0 0 166 154" fill="none" xmlns="http://www.w3.org/2000/svg">
<path d="M105.663 4.59842C112.86 6.49775 121.457 8.49704 124.756 9.19679C130.054 10.2964 131.454 11.0961 136.252 16.0944C139.251 19.1933 143.35 23.5917 145.249 25.9909C148.448 29.8895 149.348 30.3894 155.245 31.389C158.844 31.8888 162.143 32.7885 162.643 33.2883C163.243 33.7882 162.143 36.2873 160.044 39.3862C155.545 46.1838 154.946 48.2831 156.645 50.6822C157.645 52.1817 159.144 52.5816 162.243 52.5816C164.942 52.4816 166.242 52.7815 165.842 53.5812C165.642 54.181 163.642 58.9793 161.443 64.1775C155.145 79.4721 152.246 84.7702 147.048 90.3683L142.15 95.6664L144.649 90.5682C150.847 77.8727 147.848 69.1757 137.452 69.1757C132.154 69.1757 128.855 71.9747 124.856 80.0719C122.957 83.6706 118.958 89.7685 115.859 93.6671L110.261 100.665V109.661C110.261 116.959 109.861 119.458 108.162 122.657C105.363 127.855 105.763 127.555 100.665 127.755C92.5674 128.055 90.2682 132.753 94.4668 140.351L96.766 144.349L91.4679 149.348C84.6703 155.745 83.4707 154.846 86.3697 145.549C88.8688 137.352 88.5688 129.654 85.37 123.357C83.0708 118.858 79.672 115.959 71.4749 111.561C68.5759 110.061 61.6783 104.563 56.2802 99.4651C46.9835 90.7681 46.0838 90.1683 42.3851 90.3683C37.5868 90.5682 35.4875 89.1687 25.591 80.0719C16.5942 71.6748 13.8951 70.2753 5.99789 69.3756L0 68.6759L8.59698 61.2785C14.9947 55.8804 18.4935 51.9818 21.9923 46.2838C28.6899 35.4876 29.9895 33.8881 37.2869 28.59C40.8856 25.9909 45.484 22.3922 47.6832 20.4928C49.7825 18.5935 55.2806 15.1947 59.9789 13.0954C64.7772 10.8962 70.7751 7.19751 73.5741 4.59842L78.7723 3.05176e-05L85.6699 0.699783C89.4686 0.999678 98.4654 2.79905 105.663 4.59842Z" fill="white"/>
</svg>
