<svg width="84" height="47" viewBox="0 0 84 47" fill="none" xmlns="http://www.w3.org/2000/svg">
<path d="M34.8598 2.49915C38.3586 3.89865 45.856 5.69802 51.454 6.49774C63.3498 8.29711 69.0478 10.0965 72.0468 13.2953C74.5459 15.8944 79.3442 26.2908 81.5434 33.6882L83.1429 38.9863H76.4452C72.7465 38.9863 67.2485 38.2865 64.2495 37.4868C53.6533 34.4879 50.7542 34.4879 47.8553 37.2869C46.4558 38.6864 45.2562 40.7857 45.2562 41.7853C45.2562 46.2838 39.1583 47.4833 31.9609 44.4844C27.9623 42.785 27.5624 41.7854 29.7616 37.9867C31.661 34.6879 31.661 29.5896 29.7616 27.9902C28.762 27.1905 26.2629 26.8906 22.7641 27.1905C18.4656 27.5903 16.4663 28.39 12.5677 31.389C6.96964 35.6875 4.27059 36.5872 1.27165 34.9877C-0.927579 33.7882 -0.827588 33.5882 6.06999 27.0905C10.8683 22.4921 13.4674 19.2932 14.2671 16.4942C16.4663 9.59663 24.1636 0 27.5624 0C28.1622 0 31.461 1.09964 34.8598 2.49915Z" fill="white"/>
</svg>
