<svg width="153" height="138" viewBox="0 0 153 138" fill="none" xmlns="http://www.w3.org/2000/svg">
<path d="M78.0725 2.24617C79.9719 3.44575 83.0708 6.74457 84.9701 9.44362C92.9673 20.6397 96.4661 22.6389 103.564 19.9399C105.863 19.0402 106.662 19.1402 108.262 20.8396C110.061 22.639 110.161 23.2388 108.962 29.5366C107.962 35.0346 107.862 39.433 108.962 52.3285C110.161 69.0226 111.161 74.0209 113.36 75.8203C114.06 76.4201 118.858 77.2198 124.056 77.5197C129.255 77.8196 135.152 78.7193 137.252 79.519C139.251 80.3187 142.05 80.9185 143.45 80.9185C146.848 80.9185 148.048 83.8175 147.348 90.2152C146.848 94.8136 147.148 96.513 149.847 102.611C151.547 106.509 152.946 110.308 152.946 111.108C152.946 115.006 147.548 123.004 140.251 130.101C132.453 137.699 132.154 137.798 128.855 136.899C127.055 136.299 121.957 135.599 117.759 135.299C109.961 134.6 109.961 134.6 103.164 128.602C96.0662 122.304 95.1665 121.804 81.9712 116.806C75.2735 114.307 71.2749 113.507 62.9778 113.007C51.4819 112.307 50.3823 111.908 41.4854 104.91C38.1866 102.311 33.7881 99.412 31.6889 98.4123C27.2904 96.413 23.7916 92.4144 20.4928 86.0167C16.5942 78.1195 15.8944 74.0209 17.4938 68.5228C18.2936 65.8238 18.9933 60.3257 18.9933 56.3271C18.9933 50.0293 18.6934 48.7298 16.3942 46.0307C13.3953 42.5319 9.29673 41.9322 3.49876 44.3313C0.0999589 45.8308 0 45.8308 0 43.3317C0 42.0321 0.599776 40.9325 1.29953 40.9325C1.89932 40.9325 4.89827 39.8329 7.89722 38.4334C12.5956 36.2342 13.6952 36.0342 17.194 37.0339C22.892 38.5334 26.7906 37.2339 31.5889 32.3356C35.0877 28.7369 36.6871 27.9371 40.8856 27.3373C47.0834 26.5376 49.9824 23.7386 50.6822 17.7407C51.3819 12.6425 53.981 9.44363 62.3781 3.8456C69.1757 -0.752787 73.0743 -1.15263 78.0725 2.24617Z" fill="white"/>
</svg>
