<svg width="112" height="74" viewBox="0 0 112 74" fill="none" xmlns="http://www.w3.org/2000/svg">
<path d="M83.1834 3.96225C92.6801 9.86018 96.1788 9.66024 104.076 3.06256C108.075 -0.436209 111.573 -0.0363443 111.973 3.96225C112.173 5.56169 111.174 10.5599 109.774 15.0583C106.675 25.0548 106.675 25.5547 109.174 30.253C114.173 39.6497 109.574 53.2449 96.8786 66.1404C89.8811 73.2379 89.4812 73.5378 84.8828 73.5378H80.0845L83.6832 68.3396C87.3819 62.8415 88.2816 57.6434 85.8825 55.6441C85.0827 55.0443 81.1841 53.9447 77.0856 53.045C69.1884 51.4455 68.1887 50.6458 59.3918 39.6497C55.2932 34.5515 50.0951 31.8524 40.7984 29.9531C36.8997 29.1534 29.7022 27.354 24.704 25.8546C19.8057 24.455 12.2084 22.7556 7.90992 22.1559C3.61143 21.5561 0.11264 20.7563 0.0126747 20.5564C-0.0872902 20.2565 0.412541 16.5578 1.21226 12.2593L2.51179 4.56204H10.1091C20.3056 4.56204 28.4027 6.76127 35.8001 11.6595C46.6962 18.7571 52.7941 17.9573 58.892 8.86052C65.4897 -1.13597 72.5871 -2.53547 83.1834 3.96225Z" fill="white"/>
</svg>
