<svg width="36" height="42" viewBox="0 0 36 42" fill="none" xmlns="http://www.w3.org/2000/svg">
<path d="M18.2936 3.80942C25.1912 7.60808 35.9874 17.2047 35.9874 19.7038C35.9874 20.3036 31.1891 25.5018 25.3911 31.2998C14.4949 41.996 12.3956 43.1956 7.89722 40.7964C6.89757 40.1966 5.99792 38.8971 5.99792 37.8974C5.99792 36.8978 4.69836 34.1987 2.99896 31.9995C1.39952 29.7003 0 27.4011 0 26.9013C0 26.4015 1.69944 25.4018 3.79871 24.802C5.798 24.1023 8.597 22.6028 9.89655 21.4032C11.9958 19.5039 12.1957 18.7042 11.6959 11.3068C11.496 6.90834 10.8962 2.50987 10.4963 1.51022C9.49669 -0.788968 9.79657 -0.788965 18.2936 3.80942Z" fill="white"/>
</svg>
